<svg width="66" height="33" viewBox="0 0 66 33" fill="none" xmlns="http://www.w3.org/2000/svg">
<rect width="66" height="33"/>
<rect x="-36.2965" y="-38" width="98" height="98" transform="rotate(-45 -36.2965 -38)" fill="white" stroke="black" stroke-width="2"/>
<rect x="-36.5858" y="-46.2893" width="98" height="98" transform="rotate(-45 -36.5858 -46.2893)" fill="white" stroke="black" stroke-width="2"/>
<path d="M32.9686 1.44563L37.3516 6.22712L32.9594 18.2059L28.1734 6.24084L32.9686 1.44563Z" fill="white" stroke="black" stroke-width="2"/>
<path d="M55 -2.5C55 -1.91179 54.6345 -1.18408 53.582 -0.372624C52.5433 0.428147 50.9776 1.19251 48.9534 1.85257C44.916 3.16912 39.2755 4 33 4C26.7245 4 21.084 3.16912 17.0466 1.85257C15.0224 1.19251 13.4567 0.428147 12.418 -0.372624C11.3655 -1.18408 11 -1.91179 11 -2.5C11 -3.08821 11.3655 -3.81592 12.418 -4.62738C13.4567 -5.42815 15.0224 -6.19251 17.0466 -6.85257C21.084 -8.16912 26.7245 -9 33 -9C39.2755 -9 44.916 -8.16912 48.9534 -6.85257C50.9776 -6.19251 52.5433 -5.42815 53.582 -4.62738C54.6345 -3.81592 55 -3.08821 55 -2.5Z" stroke="black" stroke-width="2"/>
</svg>
